<svg width="48" height="48" viewBox="0 0 48 48" fill="none" xmlns="http://www.w3.org/2000/svg">
<path fill-rule="evenodd" clip-rule="evenodd" d="M24.0165 4.33301C12.9479 4.33301 4 13.3469 4 24.4983C4 33.4122 9.73324 40.9576 17.6868 43.6282C18.6812 43.829 19.0454 43.1943 19.0454 42.6604C19.0454 42.1929 19.0126 40.5905 19.0126 38.9209C13.4445 40.123 12.285 36.5171 12.285 36.5171C11.3902 34.18 10.0643 33.5794 10.0643 33.5794C8.24185 32.344 10.197 32.344 10.197 32.344C12.2186 32.4776 13.2794 34.414 13.2794 34.414C15.0686 37.4852 17.9518 36.6174 19.1118 36.0832C19.2773 34.7811 19.8079 33.8797 20.3713 33.379C15.9303 32.9115 11.2578 31.1755 11.2578 23.4297C11.2578 21.2262 12.0527 19.4235 13.3122 18.0214C13.1134 17.5207 12.4173 15.4504 13.5113 12.6795C13.5113 12.6795 15.2014 12.1452 19.0122 14.7494C20.6438 14.308 22.3263 14.0834 24.0165 14.0815C25.7067 14.0815 27.4295 14.3155 29.0205 14.7494C32.8317 12.1452 34.5218 12.6795 34.5218 12.6795C35.6158 15.4504 34.9192 17.5207 34.7205 18.0214C36.0132 19.4235 36.7753 21.2262 36.7753 23.4297C36.7753 31.1755 32.1028 32.8779 27.6287 33.379C28.358 34.0133 28.9873 35.215 28.9873 37.1181C28.9873 39.8223 28.9545 41.9926 28.9545 42.66C28.9545 43.1943 29.3192 43.829 30.3132 43.6286C38.2667 40.9572 43.9999 33.4122 43.9999 24.4983C44.0327 13.3469 35.052 4.33301 24.0165 4.33301Z" fill="#FF3C00"/>
</svg>
