<svg width="102" height="117" viewBox="0 0 102 117" fill="none" xmlns="http://www.w3.org/2000/svg">
<mask id="path-1-outside-1_148_759" maskUnits="userSpaceOnUse" x="0.0117188" y="-0.486328" width="102" height="117" fill="black">
<rect fill="white" x="0.0117188" y="-0.486328" width="102" height="117"/>
<path d="M47.9816 16.1191C48.004 16.1191 48.023 16.1021 48.0264 16.08C49.0412 9.49442 58.6637 8.26201 61.0039 15.0469L91.7992 104.335C92.0283 104.999 91.8025 105.735 91.2403 106.157C90.3722 106.808 89.1219 106.436 88.7498 105.417L76.9844 73.1934C73.7758 64.4057 61.8042 65.4717 59.2368 73.2838C59.1066 73.68 59.0605 74.0997 59.0605 74.5168V83.0098C59.0604 90.3909 48.8841 92.3703 46.1172 85.5273L32.082 50.8164C29.3151 43.9739 23.0061 45.9532 23.0059 53.334V85.3153C23.0059 86.7899 21.8104 87.9854 20.3358 87.9854C18.9837 87.9854 17.845 86.9746 17.6846 85.6321L10.0449 21.6963C10.0152 21.4471 10.0014 21.1916 10.0215 20.9414C10.5875 13.9063 20.4756 12.4076 23.0059 19.1855L34.9277 51.1221C37.5448 58.1327 47.9364 56.2565 47.9365 48.7734V16.1642C47.9365 16.1393 47.9567 16.1191 47.9816 16.1191Z"/>
</mask>
<path d="M61.0039 15.0469L70.4574 11.7864L70.4574 11.7863L61.0039 15.0469ZM76.9844 73.1934L86.3778 69.7637L86.3778 69.7636L76.9844 73.1934ZM59.0605 83.0098L69.0605 83.01V83.0098H59.0605ZM46.1172 85.5273L55.388 81.7788L55.388 81.7787L46.1172 85.5273ZM32.082 50.8164L41.3528 47.0678L41.3527 47.0676L32.082 50.8164ZM23.0059 53.334L13.0059 53.3337V53.334H23.0059ZM10.0449 21.6963L0.115491 22.8822L0.115556 22.8828L10.0449 21.6963ZM10.0215 20.9414L0.0536892 20.1395L0.0536376 20.1401L10.0215 20.9414ZM23.0059 19.1855L32.3744 15.6883L32.3743 15.6882L23.0059 19.1855ZM34.9277 51.1221L25.5592 54.6193L25.5592 54.6193L34.9277 51.1221ZM47.9365 48.7734L57.9365 48.7737V48.7734H47.9365ZM91.2403 106.157L85.2408 98.1562L91.2403 106.157ZM88.7498 105.417L98.1432 101.987L88.7498 105.417ZM91.7992 104.335L82.3456 107.595L91.7992 104.335ZM59.2368 73.2838L68.7369 76.406L59.2368 73.2838ZM17.6846 85.6321L7.75526 86.8186L17.6846 85.6321ZM48.0264 16.08L38.1431 14.5571L48.0264 16.08ZM48.0264 16.08L57.9098 17.6029C57.7897 18.3824 57.3474 19.185 56.6962 19.7485C56.1207 20.2464 55.5199 20.4491 55.0156 20.4997C54.5027 20.5511 53.7949 20.4719 53.0505 20.0328C52.2096 19.5367 51.7248 18.8132 51.5504 18.3075L61.0039 15.0469L70.4574 11.7863C64.5282 -5.40428 40.6601 -1.77847 38.1431 14.5571L48.0264 16.08ZM61.0039 15.0469L51.5504 18.3074L82.3456 107.595L91.7992 104.335L101.253 101.074L70.4574 11.7864L61.0039 15.0469ZM88.7498 105.417L98.1432 101.987L86.3778 69.7637L76.9844 73.1934L67.5909 76.6231L79.3563 108.847L88.7498 105.417ZM76.9844 73.1934L86.3778 69.7636C83.1178 60.8349 75.0317 56.7274 67.4813 57.0212C60.2726 57.3018 52.525 61.6776 49.7367 70.1616L59.2368 73.2838L68.7369 76.406C68.7047 76.5042 68.6445 76.6252 68.5564 76.7407C68.472 76.8514 68.389 76.922 68.3322 76.9613C68.3046 76.9804 68.2834 76.992 68.2702 76.9985C68.2571 77.005 68.2499 77.0074 68.2487 77.0078C68.2475 77.0082 68.2492 77.0076 68.253 77.0069C68.2568 77.0062 68.2592 77.0061 68.259 77.0061C68.2588 77.0061 68.2527 77.0064 68.2401 77.0051C68.2274 77.0038 68.2057 77.0006 68.1753 76.9929C68.1135 76.9772 68.0148 76.942 67.8991 76.8692C67.7781 76.7933 67.677 76.7002 67.6075 76.6136C67.5372 76.526 67.5484 76.5068 67.5909 76.6231L76.9844 73.1934ZM59.0605 74.5168H49.0605V83.0098H59.0605H69.0605V74.5168H59.0605ZM59.0605 83.0098L49.0605 83.0095C49.0606 82.4212 49.3136 81.5516 49.9688 80.8181C50.5413 80.177 51.1924 79.8886 51.717 79.7866C52.2417 79.6845 52.9534 79.7078 53.7245 80.0875C54.6069 80.5221 55.1675 81.2334 55.388 81.7788L46.1172 85.5273L36.8464 89.2759C43.7328 106.307 69.0601 101.38 69.0605 83.01L59.0605 83.0098ZM46.1172 85.5273L55.388 81.7787L41.3528 47.0678L32.082 50.8164L22.8112 54.565L36.8464 89.2759L46.1172 85.5273ZM32.082 50.8164L41.3527 47.0676C39.0748 41.4344 32.8091 34.4809 23.701 37.1431C15.6691 39.4906 13.006 47.4774 13.0059 53.3337L23.0059 53.334L33.0059 53.3343C33.0059 51.8097 33.4975 55.1165 29.3119 56.3399C27.1581 56.9694 25.155 56.4188 23.905 55.5758C22.8024 54.8321 22.6436 54.1506 22.8113 54.5653L32.082 50.8164ZM23.0059 53.334H13.0059V85.3153H23.0059H33.0059V53.334H23.0059ZM17.6846 85.6321L27.614 84.4456L19.9743 20.5098L10.0449 21.6963L0.115556 22.8828L7.75526 86.8186L17.6846 85.6321ZM10.0449 21.6963L19.9744 20.5104C19.9931 20.6675 20.0396 21.1177 19.9893 21.7427L10.0215 20.9414L0.0536376 20.1401C-0.0368259 21.2655 0.0371915 22.2266 0.115491 22.8822L10.0449 21.6963ZM10.0215 20.9414L19.9893 21.7433C19.936 22.4052 19.5938 23.2409 18.928 23.8925C18.3428 24.4653 17.7064 24.7098 17.1858 24.7839C16.6621 24.8584 15.9576 24.8019 15.2102 24.3953C14.3613 23.9335 13.8382 23.2207 13.6374 22.6829L23.0059 19.1855L32.3743 15.6882C26.0429 -1.27199 1.46328 2.61822 0.0536892 20.1395L10.0215 20.9414ZM23.0059 19.1855L13.6373 22.6828L25.5592 54.6193L34.9277 51.1221L44.2963 47.6248L32.3744 15.6883L23.0059 19.1855ZM34.9277 51.1221L25.5592 54.6193C32.0725 72.0671 57.9361 67.3986 57.9365 48.7737L47.9365 48.7734L37.9365 48.7732C37.9365 48.1886 38.1925 47.3058 38.8664 46.5631C39.4527 45.917 40.1134 45.6365 40.6367 45.542C41.16 45.4475 41.8772 45.4793 42.6523 45.8796C43.5433 46.3396 44.0918 47.0772 44.2963 47.6248L34.9277 51.1221ZM47.9365 48.7734H57.9365V16.1642H47.9365H37.9365V48.7734H47.9365ZM47.9365 16.1642H57.9365C57.9365 21.6618 53.4799 26.1191 47.9816 26.1191V16.1191V6.11914C42.4335 6.11914 37.9365 10.6169 37.9365 16.1642H47.9365ZM91.2403 106.157L85.2408 98.1562C89.7382 94.7836 96.2152 96.7069 98.1432 101.987L88.7498 105.417L79.3563 108.847C82.0286 116.166 91.0062 118.832 97.2398 114.157L91.2403 106.157ZM91.7992 104.335L82.3456 107.595C81.1588 104.154 82.3286 100.34 85.2408 98.1562L91.2403 106.157L97.2398 114.157C101.276 111.13 102.898 105.844 101.253 101.074L91.7992 104.335ZM23.0059 85.3153H13.0059C13.0059 81.2671 16.2876 77.9854 20.3358 77.9854V87.9854V97.9854C27.3333 97.9854 33.0059 92.3128 33.0059 85.3153H23.0059ZM59.2368 73.2838L49.7367 70.1616C49.178 71.8616 49.0605 73.4037 49.0605 74.5168H59.0605H69.0605C69.0605 74.7957 69.0352 75.4985 68.7369 76.406L59.2368 73.2838ZM20.3358 87.9854V77.9854C24.0476 77.9854 27.1736 80.76 27.614 84.4456L17.6846 85.6321L7.75526 86.8186C8.5165 93.1893 13.9198 97.9854 20.3358 97.9854V87.9854ZM48.0264 16.08L38.1431 14.5571C38.8582 9.91599 42.8556 6.11914 47.9816 6.11914V16.1191V26.1191C53.1523 26.1191 57.1878 22.2882 57.9098 17.6029L48.0264 16.08Z" fill="#FF3C00" mask="url(#path-1-outside-1_148_759)"/>
</svg>
