<svg width="62" height="73" viewBox="0 0 62 73" fill="none" xmlns="http://www.w3.org/2000/svg">
<path fill-rule="evenodd" clip-rule="evenodd" d="M28.2904 4.58671C29.0219 -0.341272 36.21 -1.27206 37.9555 3.78886L61.1664 71.0867L59.1664 72.5867L49.852 47.074C47.4038 40.3694 38.1029 41.3703 36.5102 47.5857V54.3816C36.5102 59.8763 28.9354 61.3503 26.8754 56.2566L16.4272 30.4168C14.3674 25.3227 9.6704 26.7961 9.67032 32.2908V58.0867H5.91739L0.0326287 8.83476C0.00284856 8.58553 -0.0121881 8.33166 0.0121209 8.08183C0.514262 2.92635 7.79819 1.85481 9.67032 6.86992L18.5453 30.6443C20.4937 35.8629 28.2289 34.4659 28.2289 28.8953V4.58671H28.2904Z" fill="#ED420E"/>
</svg>
